<?xml version="1.0" standalone="no"?>
<!DOCTYPE svg PUBLIC "-//W3C//DTD SVG 20010904//EN"
 "http://www.w3.org/TR/2001/REC-SVG-20010904/DTD/svg10.dtd">
<svg version="1.0" xmlns="http://www.w3.org/2000/svg"
 width="2362.000000pt" height="2362.000000pt" viewBox="0 0 2362.000000 2362.000000"
 preserveAspectRatio="xMidYMid meet">
<metadata>
Created by potrace 1.14, written by Peter Selinger 2001-2017
</metadata>
<g transform="translate(0.000000,2362.000000) scale(0.100000,-0.100000)"
fill="#000000" stroke="none">
<path d="M11378 23615 c-2 -2 -68 -6 -148 -9 -80 -4 -172 -9 -205 -11 -33 -2
-98 -7 -145 -10 -47 -4 -101 -8 -120 -10 -19 -2 -71 -6 -115 -10 -44 -3 -91
-8 -105 -10 -14 -2 -47 -7 -75 -10 -93 -10 -140 -15 -175 -20 -19 -3 -84 -12
-145 -20 -60 -8 -126 -17 -145 -21 -19 -3 -91 -14 -160 -25 -69 -11 -159 -27
-200 -34 -41 -8 -86 -17 -100 -19 -14 -3 -72 -14 -130 -26 -119 -25 -119 -25
-180 -39 -25 -5 -56 -12 -70 -15 -31 -6 -47 -10 -130 -31 -36 -9 -74 -18 -86
-20 -11 -3 -72 -18 -135 -35 -63 -17 -122 -33 -131 -35 -60 -13 -194 -53 -413
-121 -251 -77 -723 -243 -810 -284 -11 -5 -65 -27 -120 -49 -94 -36 -269 -111
-395 -168 -30 -14 -71 -32 -90 -40 -76 -34 -600 -295 -680 -339 -253 -138
-616 -353 -753 -445 -32 -22 -62 -39 -67 -39 -6 0 -10 -4 -10 -9 0 -5 -13 -14
-30 -21 -16 -7 -30 -16 -30 -21 0 -5 -4 -9 -9 -9 -16 0 -448 -302 -602 -420
-172 -132 -229 -176 -348 -273 -73 -60 -145 -119 -160 -131 -14 -13 -62 -54
-106 -92 -83 -72 -122 -105 -159 -139 -13 -11 -63 -56 -111 -100 -175 -157
-684 -673 -822 -831 -89 -103 -132 -152 -152 -173 -13 -14 -40 -46 -60 -71
-20 -25 -44 -54 -54 -65 -93 -102 -426 -534 -589 -765 -198 -281 -568 -860
-568 -889 0 -5 -3 -11 -7 -13 -5 -1 -16 -19 -27 -38 -45 -84 -81 -149 -114
-205 -42 -72 -305 -591 -349 -690 -18 -38 -48 -105 -67 -148 -20 -43 -36 -80
-36 -82 0 -2 -13 -32 -29 -67 -158 -347 -416 -1065 -507 -1413 -1 -5 -14 -48
-28 -95 -27 -93 -98 -366 -122 -470 -8 -36 -16 -72 -18 -80 -4 -13 -79 -378
-91 -440 -3 -14 -8 -36 -10 -50 -8 -37 -56 -330 -61 -365 -2 -16 -6 -43 -8
-60 -5 -33 -34 -250 -41 -305 -2 -19 -8 -62 -12 -95 -10 -74 -11 -2579 -1
-2655 4 -30 12 -91 17 -135 5 -44 15 -111 20 -150 6 -38 13 -90 16 -115 3 -25
9 -70 15 -100 5 -30 11 -68 13 -85 6 -40 43 -248 61 -345 15 -78 70 -337 87
-410 12 -47 23 -95 25 -106 2 -12 24 -100 49 -195 25 -96 47 -182 50 -191 45
-192 275 -883 374 -1128 17 -41 31 -78 31 -82 0 -9 194 -463 240 -563 92 -199
311 -632 403 -795 157 -280 155 -277 230 -400 232 -378 437 -681 664 -983 120
-159 167 -221 180 -235 7 -7 34 -41 60 -75 26 -34 52 -66 59 -72 6 -5 28 -32
50 -60 21 -27 41 -52 44 -55 3 -3 30 -34 60 -70 86 -103 244 -280 360 -405 81
-88 503 -510 590 -590 225 -209 449 -403 670 -580 41 -33 91 -73 112 -88 20
-14 42 -32 50 -39 20 -19 269 -204 388 -289 58 -40 106 -77 108 -81 2 -5 8 -8
14 -8 6 0 27 -12 47 -27 20 -16 44 -32 53 -38 9 -5 54 -35 100 -66 128 -86
223 -147 337 -216 58 -35 110 -68 115 -72 6 -5 31 -20 56 -33 25 -14 61 -34
80 -45 58 -34 241 -138 305 -173 88 -49 589 -301 665 -334 36 -16 133 -59 216
-96 312 -140 723 -297 1079 -413 182 -60 360 -115 391 -122 10 -2 77 -20 148
-40 71 -20 137 -38 145 -40 9 -2 88 -22 176 -44 88 -22 194 -47 235 -56 130
-28 306 -64 341 -70 19 -3 41 -8 49 -10 8 -2 32 -6 54 -10 21 -3 41 -7 45 -9
3 -2 30 -7 60 -11 30 -4 63 -9 75 -11 28 -5 144 -24 176 -29 44 -5 124 -17
145 -21 87 -16 318 -19 1655 -19 1339 0 1599 3 1660 20 8 3 35 7 60 10 92 11
449 73 580 100 14 3 41 8 60 11 19 3 43 7 52 10 10 3 30 7 45 10 57 10 421 95
513 120 52 14 100 27 105 28 6 2 30 8 55 15 25 7 52 15 60 16 93 20 775 239
888 286 33 14 50 20 267 104 110 43 218 86 240 96 22 9 78 34 125 54 47 20
114 50 150 67 36 16 92 42 125 56 137 60 730 364 787 404 14 10 29 18 32 18 8
0 339 195 418 246 37 24 69 44 71 44 7 0 387 253 502 333 95 67 386 280 412
302 14 11 10 9 108 85 225 176 451 368 705 599 145 133 592 579 696 696 40 44
83 91 95 106 45 48 147 165 219 249 40 47 82 96 93 110 17 19 212 264 280 350
36 46 244 329 304 415 222 316 506 771 660 1055 17 30 41 73 53 95 85 149 325
640 430 880 12 28 33 73 45 101 13 28 62 150 110 270 48 120 90 228 95 239 78
182 338 1013 385 1230 3 11 11 47 19 80 62 248 126 550 156 725 6 36 13 76 16
90 2 14 7 41 10 60 3 19 11 73 19 120 8 47 17 105 20 130 3 25 8 56 10 70 2
14 7 49 10 79 4 30 9 63 11 75 2 11 6 50 9 86 4 36 8 72 10 80 2 8 7 44 10 80
3 36 8 83 10 105 2 22 8 78 12 125 10 112 10 1927 0 2050 -5 52 -12 131 -17
175 -5 44 -12 107 -15 140 -3 33 -13 110 -21 170 -8 61 -17 128 -19 150 -6 47
-40 263 -61 385 -9 47 -19 109 -24 138 -5 29 -11 56 -13 60 -3 4 -8 27 -11 52
-4 25 -8 52 -10 60 -1 8 -6 33 -11 55 -4 22 -25 117 -47 210 -21 94 -41 181
-44 195 -2 14 -7 32 -10 40 -3 8 -8 25 -10 38 -15 79 -136 505 -199 702 -113
351 -262 754 -374 1013 -28 64 -51 118 -51 121 0 2 -21 48 -46 103 -25 54 -53
114 -61 133 -43 96 -262 534 -336 670 -393 725 -878 1433 -1406 2050 -63 74
-118 137 -121 140 -3 3 -23 25 -44 50 -193 222 -570 605 -829 842 -401 369
-735 638 -1232 996 -71 51 -420 283 -477 317 -10 5 -68 42 -130 80 -62 39
-122 75 -133 81 -11 6 -70 40 -130 76 -310 182 -835 449 -1149 585 -44 18 -94
40 -110 47 -125 56 -473 194 -606 241 -353 125 -840 279 -980 310 -8 2 -58 14
-110 28 -77 21 -318 79 -380 92 -8 2 -49 11 -90 20 -41 9 -90 18 -109 21 -19
2 -37 6 -41 9 -4 2 -22 7 -41 10 -19 3 -45 8 -59 10 -90 18 -86 18 -310 55
-101 17 -198 33 -215 35 -16 2 -61 8 -100 14 -38 5 -92 12 -120 16 -27 3 -66
8 -85 10 -39 5 -105 13 -180 20 -27 3 -71 7 -97 10 -48 4 -133 12 -228 19 -27
3 -97 7 -155 11 -58 3 -132 8 -165 11 -66 6 -1012 14 -1017 9z"/>
</g>
</svg>
